//////////////////////////////////////////////////////
// Pitch Black
//////////////////////////////////////////////////////

imdb : http://www.imdb.com/title/tt0134847/
Tagline: Fight Evil With Evil
Plot: A group of marooned space travelers struggle for survival on a seemingly lifeless sun-scorched world
Total Size : 1.22 GB

General
Complete name : Pitch Black 2000 DVDRip [H.264-MP4-AAC] ~ Mindbreaker.mp4
Format : H.264/AAC/MP4 - Anamophic
Source : DVD (retail)
File size : 1.71 GiB
Duration : 1h 43mn
Overall bit rate : 2 357 Kbps


Video
ID : 1
Format : AVC
Format/Info : Advanced Video Codec
Format profile : Main@L4.0
Duration : 1h 43mn
Bit rate : 2130 Kbps
Width : 1018 pixels
Height : 434 pixels
Display aspect ratio : 2.35
Frame rate : 25.000 fps
Bits/(Pixel*Frame) : 0.193
Stream size : 1.54 GiB (90%)
Writing library : x264 core 66

Audio
ID : 2
Format : AAC
Format/Info : Advanced Audio Codec
Format profile : LC
Duration : 1h 43mn
Bit rate : 224 Kbps
Channel(s) : 6 channels
Sampling rate : 48.0 KHz
Stream size : 166 MiB (10%)
Language : English

Subtitle
Format : SubRip
Language : Dutch
Source : DVD (retail)
 
http://genesis.1337x.org:1337/announce 
http://tracker.openbittorrent.com



//////////////////////////////////////////////////////
// The Chronicles of Riddick
//////////////////////////////////////////////////////

imdb : http://www.imdb.com/title/tt0296572/
Tagline: All the power in the universe can't change destiny
Plot: 5 years after Pitch Black, the wanted criminal Riddick arrives on a planet called Helion Prime, and finds himself up against an invading empire called the Necromongers, an army that plans to convert or kill all humans in the universe.
Total Size : 1.88GB

General
Complete name : The Chronicles of Riddick 2004 DVDRip [H.264-MP4-AAC] ~ Mindbreaker.mp4
Format : H.264/AAC/MP4 - Anamophic
Source : DVD (retail)
File size : 1.88 GiB
Duration : 1h 54mn
Overall bit rate : 2358 Kbps


Video
ID : 1
Format : AVC
Format/Info : Advanced Video Codec
Format profile : Main@L4.0
Duration : 1h 54mn
Bit rate : 2133 Kbps
Width : 1034 pixels
Height : 428 pixels
Display aspect ratio : 2.35
Frame rate : 25.000 fps
Bits/(Pixel*Frame) : 0.1953
Stream size : 1.70 GiB (90%)
Writing library : x264 core 66

Audio
ID : 2
Format : AAC
Format/Info : Advanced Audio Codec
Format profile : LC
Duration : 1h 54mn
Bit rate : 222 Kbps
Channel(s) : 6 channels
Sampling rate : 48.0 KHz
Stream size : 182 MiB (9%)
Language : English

Subtitle
Format : SubRip
Language : Dutch
Source : DVD (retail)
 
http://genesis.1337x.org:1337/announce 
http://tracker.openbittorrent.com



//////////////////////////////////////////////////////
// The Chronicles of Riddick - Dark Fury
//////////////////////////////////////////////////////

imdb : http://www.imdb.com/title/tt0407658/
Plot: This story opens with the new action hero and the two other survivors of Pitch Black already caught by a giant spaceship filled with dread...
Total Size : 533 MB

General
Complete name : The Chronicles of Riddick - Dark Fury 2004 DVDRip [H.264-MP4-AAC] ~ Mindbreaker/mp4
Format : H.264/AAC/MP4 - Anamophic
Source : DVD (retail)
File size : 533 MB
Duration : 33m 31s
Overall bit rate : 2éé( Kbps


Video
ID : 1
Format : AVC
Format/Info : Advanced Video Codec
Format profile : Main@L4.0
Duration : 33m 31s
Bit rate : 2éé( Kbps
Width : 768 pixels
Height : 414 pixels
Display aspect ratio : 1.855
Frame rate : 25.000 fps
Bits/(Pixel*Frame) : 0.252
Stream size : 480 MB (90%)
Writing library : x264 core 66

Audio
ID : 2
Format : AAC
Format/Info : Advanced Audio Codec
Format profile : LC
Duration : 33m 31s
Bit rate : 222 Kbps
Channel(s) : 6 channels
Sampling rate : 48.0 KHz
Stream size : 53.2 MB (10%)
Language : English

Subtitle
Format : SubRip
Language : Dutch
 
http://genesis.1337x.org:1337/announce 
http://tracker.openbittorrent.com
